<mxfile host="65bd71144e">
    <diagram id="KTP_QF5nYztTNsXES8kK" name="Page-1">
        <mxGraphModel dx="2526" dy="2186" grid="0" gridSize="10" guides="1" tooltips="0" connect="1" arrows="1" fold="1" page="1" pageScale="1" pageWidth="850" pageHeight="1100" math="0" shadow="0">
            <root>
                <mxCell id="0"/>
                <mxCell id="1" parent="0"/>
                <mxCell id="2" value="Resposta" style="rounded=1;arcSize=10;whiteSpace=wrap;html=1;align=center;" vertex="1" parent="1">
                    <mxGeometry x="130" y="40" width="100" height="40" as="geometry"/>
                </mxCell>
                <mxCell id="3" value="Questão" style="rounded=1;arcSize=10;whiteSpace=wrap;html=1;align=center;" vertex="1" parent="1">
                    <mxGeometry x="130" y="500" width="100" height="40" as="geometry"/>
                </mxCell>
                <mxCell id="5" value="D" style="ellipse;whiteSpace=wrap;html=1;aspect=fixed;" vertex="1" parent="1">
                    <mxGeometry x="165" y="440" width="30" height="30" as="geometry"/>
                </mxCell>
                <mxCell id="6" value="Multipla escolha" style="rounded=1;arcSize=10;whiteSpace=wrap;html=1;align=center;" vertex="1" parent="1">
                    <mxGeometry x="50" y="360" width="100" height="40" as="geometry"/>
                </mxCell>
                <mxCell id="7" value="Texto Livre" style="rounded=1;arcSize=10;whiteSpace=wrap;html=1;align=center;" vertex="1" parent="1">
                    <mxGeometry x="210" y="360" width="100" height="40" as="geometry"/>
                </mxCell>
                <mxCell id="8" value="Escolha" style="rounded=1;arcSize=10;whiteSpace=wrap;html=1;align=center;" vertex="1" parent="1">
                    <mxGeometry x="50" y="190" width="100" height="40" as="geometry"/>
                </mxCell>
                <mxCell id="9" value="Texto" style="rounded=1;arcSize=10;whiteSpace=wrap;html=1;align=center;" vertex="1" parent="1">
                    <mxGeometry x="210" y="190" width="100" height="40" as="geometry"/>
                </mxCell>
                <mxCell id="11" value="D" style="ellipse;whiteSpace=wrap;html=1;aspect=fixed;" vertex="1" parent="1">
                    <mxGeometry x="165" y="100" width="30" height="30" as="geometry"/>
                </mxCell>
                <mxCell id="12" value="" style="endArrow=none;html=1;exitX=0;exitY=1;exitDx=0;exitDy=0;entryX=0.5;entryY=0;entryDx=0;entryDy=0;" edge="1" parent="1" source="11" target="8">
                    <mxGeometry width="50" height="50" relative="1" as="geometry">
                        <mxPoint x="190" y="90" as="sourcePoint"/>
                        <mxPoint x="190" y="110" as="targetPoint"/>
                    </mxGeometry>
                </mxCell>
                <mxCell id="13" value="" style="endArrow=none;html=1;exitX=1;exitY=1;exitDx=0;exitDy=0;entryX=0.5;entryY=0;entryDx=0;entryDy=0;" edge="1" parent="1" source="11" target="9">
                    <mxGeometry width="50" height="50" relative="1" as="geometry">
                        <mxPoint x="179.3933982822017" y="135.6066017177983" as="sourcePoint"/>
                        <mxPoint x="110" y="200" as="targetPoint"/>
                    </mxGeometry>
                </mxCell>
                <mxCell id="14" value="" style="endArrow=none;html=1;exitX=0.5;exitY=1;exitDx=0;exitDy=0;entryX=0;entryY=0;entryDx=0;entryDy=0;" edge="1" parent="1" source="6" target="5">
                    <mxGeometry width="50" height="50" relative="1" as="geometry">
                        <mxPoint x="39.99660171779806" y="459.99660171779806" as="sourcePoint"/>
                        <mxPoint x="109.38999999999999" y="524.39" as="targetPoint"/>
                    </mxGeometry>
                </mxCell>
                <mxCell id="15" value="" style="endArrow=none;html=1;exitX=0.5;exitY=1;exitDx=0;exitDy=0;entryX=1;entryY=0;entryDx=0;entryDy=0;" edge="1" parent="1" source="7" target="5">
                    <mxGeometry width="50" height="50" relative="1" as="geometry">
                        <mxPoint x="110" y="410" as="sourcePoint"/>
                        <mxPoint x="179.3933982822017" y="454.3933982822017" as="targetPoint"/>
                    </mxGeometry>
                </mxCell>
                <mxCell id="17" value="Responde" style="shape=rhombus;perimeter=rhombusPerimeter;whiteSpace=wrap;html=1;align=center;" vertex="1" parent="1">
                    <mxGeometry x="40" y="260" width="120" height="60" as="geometry"/>
                </mxCell>
                <mxCell id="18" value="Responde" style="shape=rhombus;perimeter=rhombusPerimeter;whiteSpace=wrap;html=1;align=center;" vertex="1" parent="1">
                    <mxGeometry x="200" y="260" width="120" height="60" as="geometry"/>
                </mxCell>
                <mxCell id="33" value="Avaliação" style="rounded=1;arcSize=10;whiteSpace=wrap;html=1;align=center;" vertex="1" parent="1">
                    <mxGeometry x="480" y="40" width="100" height="40" as="geometry"/>
                </mxCell>
                <mxCell id="34" value="Possui" style="shape=rhombus;perimeter=rhombusPerimeter;whiteSpace=wrap;html=1;align=center;" vertex="1" parent="1">
                    <mxGeometry x="290" y="30" width="120" height="60" as="geometry"/>
                </mxCell>
                <mxCell id="37" value="" style="shape=link;html=1;rounded=0;entryX=-0.047;entryY=0.501;entryDx=0;entryDy=0;entryPerimeter=0;exitX=1;exitY=0.5;exitDx=0;exitDy=0;" edge="1" parent="1" source="2">
                    <mxGeometry relative="1" as="geometry">
                        <mxPoint x="235.17" y="59.71" as="sourcePoint"/>
                        <mxPoint x="294.99999999999994" y="59.765000000000065" as="targetPoint"/>
                    </mxGeometry>
                </mxCell>
                <mxCell id="38" value="N" style="resizable=0;html=1;align=right;verticalAlign=bottom;" connectable="0" vertex="1" parent="37">
                    <mxGeometry x="1" relative="1" as="geometry">
                        <mxPoint x="-45" as="offset"/>
                    </mxGeometry>
                </mxCell>
                <mxCell id="39" value="" style="endArrow=none;html=1;rounded=0;exitX=0;exitY=0.5;exitDx=0;exitDy=0;entryX=1;entryY=0.5;entryDx=0;entryDy=0;" edge="1" parent="1" source="33" target="50">
                    <mxGeometry relative="1" as="geometry">
                        <mxPoint x="330" y="110" as="sourcePoint"/>
                        <mxPoint x="490" y="110" as="targetPoint"/>
                    </mxGeometry>
                </mxCell>
                <mxCell id="40" value="1" style="resizable=0;html=1;align=right;verticalAlign=bottom;" connectable="0" vertex="1" parent="39">
                    <mxGeometry x="1" relative="1" as="geometry">
                        <mxPoint x="65" as="offset"/>
                    </mxGeometry>
                </mxCell>
                <mxCell id="41" value="" style="rounded=1;arcSize=10;whiteSpace=wrap;html=1;align=center;fillColor=none;" vertex="1" parent="1">
                    <mxGeometry x="135" y="45" width="90" height="30" as="geometry"/>
                </mxCell>
                <mxCell id="42" value="" style="rounded=1;arcSize=10;whiteSpace=wrap;html=1;align=center;fillColor=none;" vertex="1" parent="1">
                    <mxGeometry x="55" y="195" width="90" height="30" as="geometry"/>
                </mxCell>
                <mxCell id="43" value="" style="rounded=1;arcSize=10;whiteSpace=wrap;html=1;align=center;fillColor=none;" vertex="1" parent="1">
                    <mxGeometry x="215" y="195" width="90" height="30" as="geometry"/>
                </mxCell>
                <mxCell id="44" value="" style="shape=link;html=1;rounded=0;entryX=0.5;entryY=0;entryDx=0;entryDy=0;" edge="1" parent="1" target="11">
                    <mxGeometry relative="1" as="geometry">
                        <mxPoint x="180" y="80" as="sourcePoint"/>
                        <mxPoint x="320" y="100" as="targetPoint"/>
                    </mxGeometry>
                </mxCell>
                <mxCell id="49" value="" style="shape=link;html=1;rounded=0;exitX=0.5;exitY=1;exitDx=0;exitDy=0;" edge="1" parent="1" source="5">
                    <mxGeometry relative="1" as="geometry">
                        <mxPoint x="179.8" y="490" as="sourcePoint"/>
                        <mxPoint x="180" y="500" as="targetPoint"/>
                    </mxGeometry>
                </mxCell>
                <mxCell id="50" value="" style="shape=rhombus;perimeter=rhombusPerimeter;whiteSpace=wrap;html=1;align=center;fillColor=none;" vertex="1" parent="1">
                    <mxGeometry x="295" y="32.5" width="110" height="55" as="geometry"/>
                </mxCell>
                <mxCell id="51" value="Questionário" style="rounded=1;arcSize=10;whiteSpace=wrap;html=1;align=center;" vertex="1" parent="1">
                    <mxGeometry x="480" y="500" width="100" height="40" as="geometry"/>
                </mxCell>
                <mxCell id="53" value="Compõe" style="shape=rhombus;perimeter=rhombusPerimeter;whiteSpace=wrap;html=1;align=center;" vertex="1" parent="1">
                    <mxGeometry x="290" y="490" width="120" height="60" as="geometry"/>
                </mxCell>
                <mxCell id="56" value="" style="endArrow=none;html=1;rounded=0;entryX=1;entryY=0.5;entryDx=0;entryDy=0;" edge="1" parent="1" target="3">
                    <mxGeometry relative="1" as="geometry">
                        <mxPoint x="290" y="520" as="sourcePoint"/>
                        <mxPoint x="460" y="430" as="targetPoint"/>
                    </mxGeometry>
                </mxCell>
                <mxCell id="57" value="M" style="resizable=0;html=1;align=right;verticalAlign=bottom;labelBackgroundColor=none;fillColor=none;" connectable="0" vertex="1" parent="56">
                    <mxGeometry x="1" relative="1" as="geometry">
                        <mxPoint x="20" as="offset"/>
                    </mxGeometry>
                </mxCell>
                <mxCell id="60" value="" style="shape=link;html=1;rounded=0;entryX=1;entryY=0.5;entryDx=0;entryDy=0;exitX=0;exitY=0.5;exitDx=0;exitDy=0;" edge="1" parent="1" source="51" target="53">
                    <mxGeometry relative="1" as="geometry">
                        <mxPoint x="410" y="610" as="sourcePoint"/>
                        <mxPoint x="320" y="610" as="targetPoint"/>
                    </mxGeometry>
                </mxCell>
                <mxCell id="61" value="N" style="resizable=0;html=1;align=right;verticalAlign=bottom;labelBackgroundColor=none;fillColor=none;" connectable="0" vertex="1" parent="60">
                    <mxGeometry x="1" relative="1" as="geometry">
                        <mxPoint x="60" as="offset"/>
                    </mxGeometry>
                </mxCell>
                <mxCell id="62" value="Nome" style="ellipse;whiteSpace=wrap;html=1;align=center;labelBackgroundColor=default;fillColor=default;" vertex="1" parent="1">
                    <mxGeometry x="480" y="540" width="100" height="40" as="geometry"/>
                </mxCell>
                <mxCell id="63" value="Cód" style="ellipse;whiteSpace=wrap;html=1;align=center;labelBackgroundColor=default;fillColor=default;fontStyle=4" vertex="1" parent="1">
                    <mxGeometry x="480" y="570" width="100" height="40" as="geometry"/>
                </mxCell>
                <mxCell id="66" value="Opções" style="ellipse;whiteSpace=wrap;html=1;align=center;labelBackgroundColor=default;fillColor=default;fontStyle=0" vertex="1" parent="1">
                    <mxGeometry x="-50" y="400" width="100" height="40" as="geometry"/>
                </mxCell>
                <mxCell id="68" value="" style="ellipse;whiteSpace=wrap;html=1;align=center;labelBackgroundColor=default;fillColor=none;" vertex="1" parent="1">
                    <mxGeometry x="-45" y="405" width="90" height="30" as="geometry"/>
                </mxCell>
                <mxCell id="70" value="Escolha" style="ellipse;whiteSpace=wrap;html=1;align=center;labelBackgroundColor=default;fillColor=default;fontStyle=0" vertex="1" parent="1">
                    <mxGeometry x="-50" y="190" width="100" height="40" as="geometry"/>
                </mxCell>
                <mxCell id="71" value="Participa" style="shape=rhombus;perimeter=rhombusPerimeter;whiteSpace=wrap;html=1;align=center;" vertex="1" parent="1">
                    <mxGeometry x="470" y="250" width="120" height="60" as="geometry"/>
                </mxCell>
                <mxCell id="73" value="" style="endArrow=none;html=1;rounded=0;entryX=0.5;entryY=0;entryDx=0;entryDy=0;exitX=0.5;exitY=1;exitDx=0;exitDy=0;" edge="1" parent="1" source="71" target="51">
                    <mxGeometry relative="1" as="geometry">
                        <mxPoint x="460" y="250" as="sourcePoint"/>
                        <mxPoint x="400" y="100" as="targetPoint"/>
                    </mxGeometry>
                </mxCell>
                <mxCell id="74" value="1" style="resizable=0;html=1;align=right;verticalAlign=bottom;labelBackgroundColor=none;fillColor=none;" connectable="0" vertex="1" parent="73">
                    <mxGeometry x="1" relative="1" as="geometry">
                        <mxPoint x="-10" as="offset"/>
                    </mxGeometry>
                </mxCell>
                <mxCell id="75" value="" style="shape=link;html=1;rounded=0;exitX=0.5;exitY=1;exitDx=0;exitDy=0;" edge="1" parent="1" source="33">
                    <mxGeometry relative="1" as="geometry">
                        <mxPoint x="400" y="350" as="sourcePoint"/>
                        <mxPoint x="530" y="250" as="targetPoint"/>
                    </mxGeometry>
                </mxCell>
                <mxCell id="76" value="N" style="resizable=0;html=1;align=right;verticalAlign=bottom;labelBackgroundColor=default;fillColor=default;" connectable="0" vertex="1" parent="75">
                    <mxGeometry x="1" relative="1" as="geometry">
                        <mxPoint x="-10" y="-150" as="offset"/>
                    </mxGeometry>
                </mxCell>
                <mxCell id="96" value="Funcionário" style="rounded=1;arcSize=10;whiteSpace=wrap;html=1;align=center;" vertex="1" parent="1">
                    <mxGeometry x="1040" y="80" width="100" height="40" as="geometry"/>
                </mxCell>
                <mxCell id="97" value="D" style="ellipse;whiteSpace=wrap;html=1;aspect=fixed;" vertex="1" parent="1">
                    <mxGeometry x="970" y="85" width="30" height="30" as="geometry"/>
                </mxCell>
                <mxCell id="98" value="Avaliador" style="rounded=1;arcSize=10;whiteSpace=wrap;html=1;align=center;" vertex="1" parent="1">
                    <mxGeometry x="820" y="140" width="100" height="40" as="geometry"/>
                </mxCell>
                <mxCell id="99" value="Avaliado" style="rounded=1;arcSize=10;whiteSpace=wrap;html=1;align=center;" vertex="1" parent="1">
                    <mxGeometry x="820" y="30" width="100" height="40" as="geometry"/>
                </mxCell>
                <mxCell id="100" value="" style="endArrow=none;html=1;exitX=1;exitY=0.5;exitDx=0;exitDy=0;entryX=0;entryY=1;entryDx=0;entryDy=0;" edge="1" source="98" target="97" parent="1">
                    <mxGeometry width="50" height="50" relative="1" as="geometry">
                        <mxPoint x="849.9966017177981" y="324.99660171779806" as="sourcePoint"/>
                        <mxPoint x="919.39" y="389.39" as="targetPoint"/>
                    </mxGeometry>
                </mxCell>
                <mxCell id="101" value="" style="endArrow=none;html=1;exitX=1;exitY=0.5;exitDx=0;exitDy=0;entryX=0;entryY=0;entryDx=0;entryDy=0;" edge="1" source="99" target="97" parent="1">
                    <mxGeometry width="50" height="50" relative="1" as="geometry">
                        <mxPoint x="920" y="275" as="sourcePoint"/>
                        <mxPoint x="989.3933982822018" y="319.3933982822017" as="targetPoint"/>
                    </mxGeometry>
                </mxCell>
                <mxCell id="104" value="" style="shape=link;html=1;rounded=0;exitX=1;exitY=0.5;exitDx=0;exitDy=0;entryX=0;entryY=0.5;entryDx=0;entryDy=0;" edge="1" source="97" parent="1" target="96">
                    <mxGeometry relative="1" as="geometry">
                        <mxPoint x="1059.8" y="135" as="sourcePoint"/>
                        <mxPoint x="1060" y="145" as="targetPoint"/>
                    </mxGeometry>
                </mxCell>
                <mxCell id="107" value="CPF" style="ellipse;whiteSpace=wrap;html=1;align=center;labelBackgroundColor=default;fillColor=default;fontStyle=4" vertex="1" parent="1">
                    <mxGeometry x="1040" y="115" width="100" height="40" as="geometry"/>
                </mxCell>
                <mxCell id="108" value="Nome" style="ellipse;whiteSpace=wrap;html=1;align=center;labelBackgroundColor=default;fillColor=default;fontStyle=0" vertex="1" parent="1">
                    <mxGeometry x="1040" y="145" width="100" height="40" as="geometry"/>
                </mxCell>
                <mxCell id="109" value="Email" style="ellipse;whiteSpace=wrap;html=1;align=center;labelBackgroundColor=default;fillColor=default;fontStyle=0" vertex="1" parent="1">
                    <mxGeometry x="1040" y="175" width="100" height="40" as="geometry"/>
                </mxCell>
                <mxCell id="110" value="Setor" style="ellipse;whiteSpace=wrap;html=1;align=center;labelBackgroundColor=default;fillColor=default;fontStyle=0" vertex="1" parent="1">
                    <mxGeometry x="1040" y="205" width="100" height="40" as="geometry"/>
                </mxCell>
                <mxCell id="111" value="CTPS" style="ellipse;whiteSpace=wrap;html=1;align=center;labelBackgroundColor=default;fillColor=default;fontStyle=0" vertex="1" parent="1">
                    <mxGeometry x="1040" y="235" width="100" height="40" as="geometry"/>
                </mxCell>
                <mxCell id="112" value="Treinamento" style="rounded=1;arcSize=10;whiteSpace=wrap;html=1;align=center;" vertex="1" parent="1">
                    <mxGeometry x="1040" y="350" width="100" height="40" as="geometry"/>
                </mxCell>
                <mxCell id="113" value="Data realização" style="ellipse;whiteSpace=wrap;html=1;align=center;labelBackgroundColor=default;fillColor=default;fontStyle=0" vertex="1" parent="1">
                    <mxGeometry x="1040" y="390" width="100" height="40" as="geometry"/>
                </mxCell>
                <mxCell id="114" value="Validade" style="ellipse;whiteSpace=wrap;html=1;align=center;labelBackgroundColor=default;fillColor=default;fontStyle=0" vertex="1" parent="1">
                    <mxGeometry x="1040" y="420" width="100" height="40" as="geometry"/>
                </mxCell>
                <mxCell id="115" value="Nome" style="ellipse;whiteSpace=wrap;html=1;align=center;labelBackgroundColor=default;fillColor=default;fontStyle=0" vertex="1" parent="1">
                    <mxGeometry x="1040" y="450" width="100" height="40" as="geometry"/>
                </mxCell>
                <mxCell id="116" value="Cód" style="ellipse;whiteSpace=wrap;html=1;align=center;labelBackgroundColor=default;fillColor=default;fontStyle=4" vertex="1" parent="1">
                    <mxGeometry x="1040" y="480" width="100" height="40" as="geometry"/>
                </mxCell>
                <mxCell id="117" value="Local" style="ellipse;whiteSpace=wrap;html=1;align=center;labelBackgroundColor=default;fillColor=default;fontStyle=0" vertex="1" parent="1">
                    <mxGeometry x="1040" y="510" width="100" height="40" as="geometry"/>
                </mxCell>
                <mxCell id="118" value="Faz" style="shape=rhombus;perimeter=rhombusPerimeter;whiteSpace=wrap;html=1;align=center;" vertex="1" parent="1">
                    <mxGeometry x="1190" y="185" width="120" height="60" as="geometry"/>
                </mxCell>
                <mxCell id="120" value="Habilita" style="shape=rhombus;perimeter=rhombusPerimeter;whiteSpace=wrap;html=1;align=center;" vertex="1" parent="1">
                    <mxGeometry x="810" y="340" width="120" height="60" as="geometry"/>
                </mxCell>
                <mxCell id="124" value="" style="endArrow=none;html=1;rounded=0;exitX=0.5;exitY=1;exitDx=0;exitDy=0;entryX=1;entryY=0.5;entryDx=0;entryDy=0;" edge="1" parent="1" source="118" target="112">
                    <mxGeometry relative="1" as="geometry">
                        <mxPoint x="1020" y="315" as="sourcePoint"/>
                        <mxPoint x="1180" y="315" as="targetPoint"/>
                        <Array as="points">
                            <mxPoint x="1250" y="370"/>
                        </Array>
                    </mxGeometry>
                </mxCell>
                <mxCell id="125" value="N" style="resizable=0;html=1;align=right;verticalAlign=bottom;labelBackgroundColor=default;fillColor=default;" connectable="0" vertex="1" parent="124">
                    <mxGeometry x="1" relative="1" as="geometry">
                        <mxPoint x="20" as="offset"/>
                    </mxGeometry>
                </mxCell>
                <mxCell id="126" value="" style="endArrow=none;html=1;rounded=0;entryX=1;entryY=0.5;entryDx=0;entryDy=0;exitX=0.5;exitY=0;exitDx=0;exitDy=0;" edge="1" parent="1" source="118" target="96">
                    <mxGeometry relative="1" as="geometry">
                        <mxPoint x="1110" y="215" as="sourcePoint"/>
                        <mxPoint x="1270" y="215" as="targetPoint"/>
                        <Array as="points">
                            <mxPoint x="1250" y="100"/>
                        </Array>
                    </mxGeometry>
                </mxCell>
                <mxCell id="127" value="1" style="resizable=0;html=1;align=right;verticalAlign=bottom;labelBackgroundColor=default;fillColor=default;" connectable="0" vertex="1" parent="126">
                    <mxGeometry x="1" relative="1" as="geometry">
                        <mxPoint x="10" as="offset"/>
                    </mxGeometry>
                </mxCell>
                <mxCell id="130" value="" style="endArrow=none;html=1;rounded=0;exitX=0.5;exitY=0;exitDx=0;exitDy=0;entryX=0.5;entryY=1;entryDx=0;entryDy=0;" edge="1" parent="1" source="120" target="98">
                    <mxGeometry relative="1" as="geometry">
                        <mxPoint x="970" y="325" as="sourcePoint"/>
                        <mxPoint x="1130" y="325" as="targetPoint"/>
                    </mxGeometry>
                </mxCell>
                <mxCell id="131" value="1" style="resizable=0;html=1;align=right;verticalAlign=bottom;labelBackgroundColor=default;fillColor=default;" connectable="0" vertex="1" parent="130">
                    <mxGeometry x="1" relative="1" as="geometry">
                        <mxPoint x="-10" y="20" as="offset"/>
                    </mxGeometry>
                </mxCell>
                <mxCell id="132" value="" style="endArrow=none;html=1;rounded=0;exitX=1;exitY=0.5;exitDx=0;exitDy=0;entryX=0;entryY=0.5;entryDx=0;entryDy=0;" edge="1" parent="1" source="120" target="112">
                    <mxGeometry relative="1" as="geometry">
                        <mxPoint x="880" y="350" as="sourcePoint"/>
                        <mxPoint x="880" y="215" as="targetPoint"/>
                    </mxGeometry>
                </mxCell>
                <mxCell id="133" value="1" style="resizable=0;html=1;align=right;verticalAlign=bottom;labelBackgroundColor=default;fillColor=default;" connectable="0" vertex="1" parent="132">
                    <mxGeometry x="1" relative="1" as="geometry">
                        <mxPoint x="-10" y="-5" as="offset"/>
                    </mxGeometry>
                </mxCell>
                <mxCell id="134" value="Realiza" style="shape=rhombus;perimeter=rhombusPerimeter;whiteSpace=wrap;html=1;align=center;" vertex="1" parent="1">
                    <mxGeometry x="640" y="130" width="120" height="60" as="geometry"/>
                </mxCell>
                <mxCell id="135" value="Participa" style="shape=rhombus;perimeter=rhombusPerimeter;whiteSpace=wrap;html=1;align=center;" vertex="1" parent="1">
                    <mxGeometry x="640" y="20" width="120" height="60" as="geometry"/>
                </mxCell>
                <mxCell id="136" value="Texto questão" style="ellipse;whiteSpace=wrap;html=1;align=center;labelBackgroundColor=default;fillColor=default;fontStyle=0" vertex="1" parent="1">
                    <mxGeometry x="310" y="360" width="100" height="40" as="geometry"/>
                </mxCell>
                <mxCell id="137" value="Texto questão" style="ellipse;whiteSpace=wrap;html=1;align=center;labelBackgroundColor=default;fillColor=default;fontStyle=0" vertex="1" parent="1">
                    <mxGeometry x="-50" y="360" width="100" height="40" as="geometry"/>
                </mxCell>
                <mxCell id="138" value="Tipo questão" style="ellipse;whiteSpace=wrap;html=1;align=center;labelBackgroundColor=default;fillColor=default;fontStyle=0" vertex="1" parent="1">
                    <mxGeometry x="130" y="540" width="100" height="40" as="geometry"/>
                </mxCell>
                <mxCell id="139" value="Tipo resposta" style="ellipse;whiteSpace=wrap;html=1;align=center;labelBackgroundColor=default;fillColor=default;fontStyle=0" vertex="1" parent="1">
                    <mxGeometry x="130" width="100" height="40" as="geometry"/>
                </mxCell>
                <mxCell id="140" value="Texto resposta" style="ellipse;whiteSpace=wrap;html=1;align=center;labelBackgroundColor=default;fillColor=default;fontStyle=0" vertex="1" parent="1">
                    <mxGeometry x="310" y="190" width="100" height="40" as="geometry"/>
                </mxCell>
                <mxCell id="141" value="Rating" style="ellipse;whiteSpace=wrap;html=1;align=center;labelBackgroundColor=default;fillColor=default;fontStyle=0" vertex="1" parent="1">
                    <mxGeometry x="480" width="100" height="40" as="geometry"/>
                </mxCell>
                <mxCell id="142" value="Descrição" style="ellipse;whiteSpace=wrap;html=1;align=center;labelBackgroundColor=default;fillColor=default;fontStyle=0" vertex="1" parent="1">
                    <mxGeometry x="480" y="-30" width="100" height="40" as="geometry"/>
                </mxCell>
                <mxCell id="143" value="Data completa" style="ellipse;whiteSpace=wrap;html=1;align=center;labelBackgroundColor=default;fillColor=default;fontStyle=0" vertex="1" parent="1">
                    <mxGeometry x="480" y="-60" width="100" height="40" as="geometry"/>
                </mxCell>
                <mxCell id="144" value="Local" style="ellipse;whiteSpace=wrap;html=1;align=center;labelBackgroundColor=default;fillColor=default;fontStyle=0" vertex="1" parent="1">
                    <mxGeometry x="480" y="-90" width="100" height="40" as="geometry"/>
                </mxCell>
                <mxCell id="145" value="Cód" style="ellipse;whiteSpace=wrap;html=1;align=center;labelBackgroundColor=default;fillColor=default;fontStyle=4" vertex="1" parent="1">
                    <mxGeometry x="480" y="-120" width="100" height="40" as="geometry"/>
                </mxCell>
                <mxCell id="146" value="CPF avaliador" style="ellipse;whiteSpace=wrap;html=1;align=center;labelBackgroundColor=default;fillColor=default;fontStyle=0" vertex="1" parent="1">
                    <mxGeometry x="250" y="-250" width="100" height="40" as="geometry"/>
                </mxCell>
                <mxCell id="147" value="Cód questionário" style="ellipse;whiteSpace=wrap;html=1;align=center;labelBackgroundColor=default;fillColor=default;fontStyle=0" vertex="1" parent="1">
                    <mxGeometry x="250" y="-280" width="100" height="40" as="geometry"/>
                </mxCell>
                <mxCell id="148" value="Tipo&amp;nbsp;" style="ellipse;whiteSpace=wrap;html=1;align=center;labelBackgroundColor=default;fillColor=default;fontStyle=0" vertex="1" parent="1">
                    <mxGeometry x="1040" y="260" width="100" height="40" as="geometry"/>
                </mxCell>
                <mxCell id="163" value="" style="endArrow=none;dashed=1;html=1;" edge="1" parent="1">
                    <mxGeometry width="50" height="50" relative="1" as="geometry">
                        <mxPoint x="262.5" y="-220" as="sourcePoint"/>
                        <mxPoint x="337.5" y="-220" as="targetPoint"/>
                    </mxGeometry>
                </mxCell>
                <mxCell id="164" value="" style="endArrow=none;dashed=1;html=1;" edge="1" parent="1">
                    <mxGeometry width="50" height="50" relative="1" as="geometry">
                        <mxPoint x="262.5" y="-250" as="sourcePoint"/>
                        <mxPoint x="337.5" y="-250" as="targetPoint"/>
                    </mxGeometry>
                </mxCell>
                <mxCell id="168" value="Status" style="ellipse;whiteSpace=wrap;html=1;align=center;labelBackgroundColor=default;fillColor=default;fontStyle=0" vertex="1" parent="1">
                    <mxGeometry x="1040" y="290" width="100" height="40" as="geometry"/>
                </mxCell>
                <mxCell id="64" value="Cód" style="ellipse;whiteSpace=wrap;html=1;align=center;labelBackgroundColor=default;fillColor=default;fontStyle=4" vertex="1" parent="1">
                    <mxGeometry x="130" y="570" width="100" height="40" as="geometry"/>
                </mxCell>
                <mxCell id="166" value="Status" style="ellipse;whiteSpace=wrap;html=1;align=center;labelBackgroundColor=default;fillColor=default;fontStyle=0" vertex="1" parent="1">
                    <mxGeometry x="130" y="600" width="100" height="40" as="geometry"/>
                </mxCell>
                <mxCell id="169" value="N° certificado" style="ellipse;whiteSpace=wrap;html=1;align=center;labelBackgroundColor=default;fillColor=default;fontStyle=4" vertex="1" parent="1">
                    <mxGeometry x="1300" y="195" width="100" height="40" as="geometry"/>
                </mxCell>
                <mxCell id="173" value="" style="shape=link;html=1;rounded=0;entryX=1.001;entryY=0.65;entryDx=0;entryDy=0;entryPerimeter=0;exitX=0;exitY=0.5;exitDx=0;exitDy=0;" edge="1" parent="1" source="134" target="33">
                    <mxGeometry relative="1" as="geometry">
                        <mxPoint x="700" y="130" as="sourcePoint"/>
                        <mxPoint x="860" y="130" as="targetPoint"/>
                        <Array as="points">
                            <mxPoint x="620" y="160"/>
                            <mxPoint x="620" y="66"/>
                        </Array>
                    </mxGeometry>
                </mxCell>
                <mxCell id="174" value="N" style="resizable=0;html=1;align=right;verticalAlign=bottom;labelBackgroundColor=default;fillColor=default;" connectable="0" vertex="1" parent="173">
                    <mxGeometry x="1" relative="1" as="geometry">
                        <mxPoint x="10" y="24" as="offset"/>
                    </mxGeometry>
                </mxCell>
                <mxCell id="175" value="" style="shape=link;html=1;rounded=0;entryX=1;entryY=0.25;entryDx=0;entryDy=0;exitX=0.025;exitY=0.503;exitDx=0;exitDy=0;exitPerimeter=0;" edge="1" parent="1" source="135" target="33">
                    <mxGeometry relative="1" as="geometry">
                        <mxPoint x="700" y="130" as="sourcePoint"/>
                        <mxPoint x="860" y="130" as="targetPoint"/>
                    </mxGeometry>
                </mxCell>
                <mxCell id="176" value="1" style="resizable=0;html=1;align=right;verticalAlign=bottom;labelBackgroundColor=default;fillColor=default;" connectable="0" vertex="1" parent="175">
                    <mxGeometry x="1" relative="1" as="geometry">
                        <mxPoint x="10" as="offset"/>
                    </mxGeometry>
                </mxCell>
                <mxCell id="177" value="" style="endArrow=none;html=1;rounded=0;exitX=1;exitY=0.5;exitDx=0;exitDy=0;entryX=0;entryY=0.5;entryDx=0;entryDy=0;" edge="1" parent="1" source="135" target="99">
                    <mxGeometry relative="1" as="geometry">
                        <mxPoint x="700" y="130" as="sourcePoint"/>
                        <mxPoint x="860" y="130" as="targetPoint"/>
                    </mxGeometry>
                </mxCell>
                <mxCell id="178" value="1" style="resizable=0;html=1;align=right;verticalAlign=bottom;labelBackgroundColor=default;fillColor=default;" connectable="0" vertex="1" parent="177">
                    <mxGeometry x="1" relative="1" as="geometry"/>
                </mxCell>
                <mxCell id="179" value="" style="endArrow=none;html=1;rounded=0;exitX=1;exitY=0.5;exitDx=0;exitDy=0;entryX=0;entryY=0.5;entryDx=0;entryDy=0;" edge="1" parent="1" source="134" target="98">
                    <mxGeometry relative="1" as="geometry">
                        <mxPoint x="770" y="60" as="sourcePoint"/>
                        <mxPoint x="830" y="60" as="targetPoint"/>
                    </mxGeometry>
                </mxCell>
                <mxCell id="180" value="1" style="resizable=0;html=1;align=right;verticalAlign=bottom;labelBackgroundColor=default;fillColor=default;" connectable="0" vertex="1" parent="179">
                    <mxGeometry x="1" relative="1" as="geometry"/>
                </mxCell>
                <mxCell id="181" value="" style="shape=link;html=1;rounded=0;exitX=0.5;exitY=0;exitDx=0;exitDy=0;entryX=0.5;entryY=1;entryDx=0;entryDy=0;" edge="1" parent="1" source="17" target="8">
                    <mxGeometry relative="1" as="geometry">
                        <mxPoint x="140" y="300" as="sourcePoint"/>
                        <mxPoint x="300" y="300" as="targetPoint"/>
                    </mxGeometry>
                </mxCell>
                <mxCell id="182" value="N" style="resizable=0;html=1;align=right;verticalAlign=bottom;labelBackgroundColor=default;fillColor=default;" connectable="0" vertex="1" parent="181">
                    <mxGeometry x="1" relative="1" as="geometry">
                        <mxPoint x="-10" y="20" as="offset"/>
                    </mxGeometry>
                </mxCell>
                <mxCell id="183" value="" style="shape=link;html=1;rounded=0;exitX=0.5;exitY=0;exitDx=0;exitDy=0;entryX=0.5;entryY=1;entryDx=0;entryDy=0;" edge="1" parent="1">
                    <mxGeometry relative="1" as="geometry">
                        <mxPoint x="259.8" y="260" as="sourcePoint"/>
                        <mxPoint x="259.8" y="230" as="targetPoint"/>
                    </mxGeometry>
                </mxCell>
                <mxCell id="184" value="N" style="resizable=0;html=1;align=right;verticalAlign=bottom;labelBackgroundColor=default;fillColor=default;" connectable="0" vertex="1" parent="183">
                    <mxGeometry x="1" relative="1" as="geometry">
                        <mxPoint x="-10" y="20" as="offset"/>
                    </mxGeometry>
                </mxCell>
                <mxCell id="185" value="" style="endArrow=none;html=1;rounded=0;exitX=0.5;exitY=1;exitDx=0;exitDy=0;entryX=0.5;entryY=0;entryDx=0;entryDy=0;" edge="1" parent="1" source="17" target="6">
                    <mxGeometry relative="1" as="geometry">
                        <mxPoint x="140" y="300" as="sourcePoint"/>
                        <mxPoint x="300" y="300" as="targetPoint"/>
                    </mxGeometry>
                </mxCell>
                <mxCell id="186" value="1" style="resizable=0;html=1;align=right;verticalAlign=bottom;labelBackgroundColor=default;fillColor=default;" connectable="0" vertex="1" parent="185">
                    <mxGeometry x="1" relative="1" as="geometry"/>
                </mxCell>
                <mxCell id="187" value="" style="endArrow=none;html=1;rounded=0;exitX=0.5;exitY=1;exitDx=0;exitDy=0;entryX=0.5;entryY=0;entryDx=0;entryDy=0;" edge="1" parent="1">
                    <mxGeometry relative="1" as="geometry">
                        <mxPoint x="259.8" y="320" as="sourcePoint"/>
                        <mxPoint x="259.8" y="360" as="targetPoint"/>
                    </mxGeometry>
                </mxCell>
                <mxCell id="188" value="1" style="resizable=0;html=1;align=right;verticalAlign=bottom;labelBackgroundColor=default;fillColor=default;" connectable="0" vertex="1" parent="187">
                    <mxGeometry x="1" relative="1" as="geometry"/>
                </mxCell>
                <mxCell id="189" value="Adequa" style="shape=rhombus;perimeter=rhombusPerimeter;whiteSpace=wrap;html=1;align=center;" vertex="1" parent="1">
                    <mxGeometry x="1260" y="570" width="120" height="60" as="geometry"/>
                </mxCell>
                <mxCell id="190" value="" style="endArrow=none;html=1;rounded=0;exitX=0;exitY=0.5;exitDx=0;exitDy=0;entryX=1;entryY=0.5;entryDx=0;entryDy=0;" edge="1" parent="1" source="189" target="195">
                    <mxGeometry relative="1" as="geometry">
                        <mxPoint x="1260" y="195" as="sourcePoint"/>
                        <mxPoint x="720" y="460" as="targetPoint"/>
                        <Array as="points">
                            <mxPoint x="1110" y="600"/>
                        </Array>
                    </mxGeometry>
                </mxCell>
                <mxCell id="191" value="1" style="resizable=0;html=1;align=right;verticalAlign=bottom;labelBackgroundColor=default;fillColor=default;" connectable="0" vertex="1" parent="190">
                    <mxGeometry x="1" relative="1" as="geometry">
                        <mxPoint x="10" as="offset"/>
                    </mxGeometry>
                </mxCell>
                <mxCell id="192" value="" style="endArrow=none;html=1;rounded=0;exitX=1;exitY=0.5;exitDx=0;exitDy=0;entryX=0.5;entryY=0;entryDx=0;entryDy=0;" edge="1" parent="1" source="189" target="96">
                    <mxGeometry relative="1" as="geometry">
                        <mxPoint x="1260" y="255" as="sourcePoint"/>
                        <mxPoint x="1280" y="410" as="targetPoint"/>
                        <Array as="points">
                            <mxPoint x="1420" y="600"/>
                            <mxPoint x="1420" y="10"/>
                            <mxPoint x="1090" y="10"/>
                        </Array>
                    </mxGeometry>
                </mxCell>
                <mxCell id="193" value="N" style="resizable=0;html=1;align=right;verticalAlign=bottom;labelBackgroundColor=default;fillColor=default;" connectable="0" vertex="1" parent="192">
                    <mxGeometry x="1" relative="1" as="geometry">
                        <mxPoint x="20" as="offset"/>
                    </mxGeometry>
                </mxCell>
                <mxCell id="194" value="Tipo" style="ellipse;whiteSpace=wrap;html=1;align=center;labelBackgroundColor=default;fillColor=default;fontStyle=0" vertex="1" parent="1">
                    <mxGeometry x="480" y="600" width="100" height="40" as="geometry"/>
                </mxCell>
                <mxCell id="167" value="Status" style="ellipse;whiteSpace=wrap;html=1;align=center;labelBackgroundColor=default;fillColor=default;fontStyle=0" vertex="1" parent="1">
                    <mxGeometry x="480" y="630" width="100" height="40" as="geometry"/>
                </mxCell>
                <mxCell id="195" value="Classificação" style="rounded=1;arcSize=10;whiteSpace=wrap;html=1;align=center;" vertex="1" parent="1">
                    <mxGeometry x="980" y="580" width="100" height="40" as="geometry"/>
                </mxCell>
                <mxCell id="196" value="Classifica" style="shape=rhombus;perimeter=rhombusPerimeter;whiteSpace=wrap;html=1;align=center;" vertex="1" parent="1">
                    <mxGeometry x="740" y="570" width="120" height="60" as="geometry"/>
                </mxCell>
                <mxCell id="201" value="" style="endArrow=none;html=1;rounded=0;entryX=1;entryY=0.5;entryDx=0;entryDy=0;exitX=0;exitY=0.5;exitDx=0;exitDy=0;" edge="1" parent="1" source="196" target="51">
                    <mxGeometry relative="1" as="geometry">
                        <mxPoint x="910" y="440" as="sourcePoint"/>
                        <mxPoint x="1070" y="440" as="targetPoint"/>
                        <Array as="points">
                            <mxPoint x="680" y="600"/>
                            <mxPoint x="680" y="520"/>
                        </Array>
                    </mxGeometry>
                </mxCell>
                <mxCell id="202" value="N" style="resizable=0;html=1;align=right;verticalAlign=bottom;labelBackgroundColor=default;fillColor=default;" connectable="0" vertex="1" parent="201">
                    <mxGeometry x="1" relative="1" as="geometry">
                        <mxPoint x="20" as="offset"/>
                    </mxGeometry>
                </mxCell>
                <mxCell id="208" value="" style="endArrow=none;html=1;rounded=0;entryX=0;entryY=0.5;entryDx=0;entryDy=0;exitX=1;exitY=0.5;exitDx=0;exitDy=0;" edge="1" parent="1" source="196" target="195">
                    <mxGeometry relative="1" as="geometry">
                        <mxPoint x="750" y="610" as="sourcePoint"/>
                        <mxPoint x="590" y="530" as="targetPoint"/>
                        <Array as="points">
                            <mxPoint x="920" y="600"/>
                        </Array>
                    </mxGeometry>
                </mxCell>
                <mxCell id="209" value="1" style="resizable=0;html=1;align=right;verticalAlign=bottom;labelBackgroundColor=default;fillColor=default;" connectable="0" vertex="1" parent="208">
                    <mxGeometry x="1" relative="1" as="geometry">
                        <mxPoint x="-10" as="offset"/>
                    </mxGeometry>
                </mxCell>
                <mxCell id="210" value="Cód" style="ellipse;whiteSpace=wrap;html=1;align=center;labelBackgroundColor=default;fillColor=default;fontStyle=4" vertex="1" parent="1">
                    <mxGeometry x="980" y="620" width="100" height="40" as="geometry"/>
                </mxCell>
                <mxCell id="211" value="Nome" style="ellipse;whiteSpace=wrap;html=1;align=center;labelBackgroundColor=default;fillColor=default;fontStyle=0" vertex="1" parent="1">
                    <mxGeometry x="980" y="650" width="100" height="40" as="geometry"/>
                </mxCell>
            </root>
        </mxGraphModel>
    </diagram>
</mxfile>